<?xml version="1.0" encoding="iso-8859-1"?>
<!-- Uploaded to: SVG Repo, www.svgrepo.com, Generator: SVG Repo Mixer Tools -->
<!DOCTYPE svg PUBLIC "-//W3C//DTD SVG 1.1//EN" "http://www.w3.org/Graphics/SVG/1.1/DTD/svg11.dtd">
<svg fill="#000000" version="1.1" id="Capa_1" xmlns="http://www.w3.org/2000/svg" xmlns:xlink="http://www.w3.org/1999/xlink" 
	 width="800px" height="800px" viewBox="0 0 34.331 34.331"
	 xml:space="preserve">
<g>
	<path d="M27.435,32.413c-0.811-0.194-1.905-0.429-2.416-0.697c-0.51-0.27,1.074-1.798,1.074-2.229c0-0.429-0.808-0.33-1.163-0.511
		c-0.367-0.187-0.475-1.368-0.475-1.368l-1-10.563c0,0,0.101-0.121,0.208-0.282c0.106-0.161-0.126-0.879,0.026-1.074
		c0.152-0.194,2.438-2.87,2.734-3.246c0.295-0.376,0.487-1.378,0.258-2.002c-0.229-0.624-1.758-4.845-2.08-5.086
		c-0.321-0.241-2.522-0.778-2.644-0.832c-0.121-0.054-0.161-0.658-0.416-0.577c-0.27-0.416,0.094-1.959-0.067-2.483
		S20.482-0.027,19.045,0c-1.437,0.027-2.158,1.017-2.361,1.409c-0.204,0.392-0.517,0.814-0.282,1.167
		c0.234,0.354,0.55,0.833,0.55,0.833s0.107,0.792,0.107,0.939s0.416,0.107,0.416,0.107l0.296,0.604c0,0-0.591,0.134-0.698,0.47
		c-0.107,0.336-1.234,0.873-1.208,1.315c0.015,0.241,0,0.577,0,1.167c-0.657-0.107-1.288,0.269-1.288,0.269L14.47,6.951
		c0,0,0.054-0.04,0.269-0.174c0.215-0.134-0.527-0.589-0.537-0.725c-0.009-0.135-0.026-0.268-0.026-0.402s-0.503-1.057-0.819-1.168
		c-0.315-0.11-0.536-0.188-0.536-0.188s0.715-0.447,0.892-0.671c0.104-0.134,0.034-0.322-0.073-0.322s-0.188,0-0.188,0
		s0.174-0.134,0.147-0.322s-0.324-0.29-0.47-0.188c0.216-0.14,0.176-0.569-0.107-0.349c-0.283,0.22-2.47,1.919-2.47,1.919
		s-0.062-0.227-0.362-0.04c-0.301,0.187-3.812,2.322-3.945,3.02c-0.135,0.698,5.199,6.033,5.199,6.033s-0.219,0.165-0.091,0.438
		c0.129,0.273,0.682,1.501,0.877,1.474c0.195-0.027,0.657-0.141,0.617,0.174s-1.007,7.985-1.194,8.442
		c-0.187,0.457-1.047,1.021-1.369,1.315c-0.322,0.295,0.617,0.751,0.617,0.751s-0.375,0.401-0.725,0.805
		c-0.349,0.403,0.376,0.617,0.376,0.617s-0.295,0.752-0.483,0.993c-0.188,0.242,0.483,0.51,0.483,0.51s-0.51,0.429-0.832,0.725
		c-0.322,0.297,0.376,0.35,0.376,0.35l-0.698,1.369c0,0-0.708,0.124-0.832,0.591s-0.43,0.805,0.296,1.342
		c0.091,0.067-0.657,0.797-0.104,0.859c3.876,0.431,18.577,0.047,19,0C28.24,34.077,28.246,32.608,27.435,32.413z M9.947,8.362
		L8.538,7.295l1.758-1.456c0,0-0.645,1.114,0.241,1.946C10.135,7.906,9.947,8.362,9.947,8.362z M11.263,9.342
		c0,0,0.349-0.188,0.321-0.51c0.147,0.081,0.269,0,0.269,0l0.229,0.658L11.263,9.342z M22.925,12.174
		c0.04-0.725,0.658-1.825,0.645-2.698c0.471,0.564,0.793,0.752,0.793,0.752s0.146,0.563,0.215,0.684
		c-0.215,0.067-0.384,0.188-0.453,0.309c-0.07,0.121-0.07,0.456-0.03,0.671c0.04,0.215-0.255,1.329-0.477,1.49
		c-0.223,0.161-0.584,0.147-0.584,0.147S22.885,12.899,22.925,12.174z M23.046,25.931c-0.129-0.253-0.342-0.304-0.497-0.55
		c-0.243-0.385-0.435-0.963-0.63-1.369c-0.107-0.225-0.066-0.493-0.175-0.686c-0.354-0.627-0.833-1.004-0.939-1.104
		c-0.362-0.345-1.946-6.827-2.255-7.176c-0.309-0.349-1.309-3.033-1.386-3.476s0.164-3.315-0.977-3.521
		c1.396-0.011,1.168,2.42,1.168,3.024s1.073,3.355,1.369,3.812c0.295,0.457,1.956,7.015,2.534,7.311
		c0.177,0.09,0.438,0.478,0.715,0.97c0.131,0.231-0.011,0.521,0.119,0.778c0.208,0.413,0.361,0.946,0.577,1.289
		c0.297,0.469,0.483,0.274,0.631,0.686c0.147,0.41,0.309,0.979,0.796,1.718C23.752,27.603,23.477,26.784,23.046,25.931z"/>
</g>
</svg>