<?xml version="1.0" encoding="iso-8859-1"?>
<!-- Uploaded to: SVG Repo, www.svgrepo.com, Generator: SVG Repo Mixer Tools -->
<svg height="800px" width="800px" version="1.1" id="Layer_1" xmlns="http://www.w3.org/2000/svg" xmlns:xlink="http://www.w3.org/1999/xlink" 
	 viewBox="0 0 512 512" xml:space="preserve">
<path style="fill:#FFB657;" d="M198.81,222.924c0,0-2.063,19.806-0.833,21.036c1.231,1.231,6.886,4.674,8.241,4.674
	c1.355,0,11.262-3.794,12.417-6.388c0.995-2.231,0.266-7.871-2.558-11.261c-3.245-3.894-2.825-10.736-2.825-10.736L198.81,222.924z"
	/>
<g>
	<path style="fill:#884D01;" d="M221.688,444.282c0,0-33.518,32.746-26.246,37.321c10.127,6.371,51.286-19.921,51.286-22.032
		c0-2.109-2.915-22.604-2.915-22.604L221.688,444.282z"/>
	<path style="fill:#884D01;" d="M267.122,469.478c0,0-32.355,35.312-22.996,41.582c9.939,6.659,48.036-24.183,48.036-26.293
		c0-2.109-2.915-22.603-2.915-22.603L267.122,469.478z"/>
</g>
<path style="fill:#013F8A;" d="M214.504,241.251l-0.743,206.609c0,0-0.476,6.06,15.68,6.06s17.009-7.729,17.009-7.729l4.304-149.67
	l0.785,0.112l8.457,176.958c0,0-1,4.743,15.156,4.743c16.155,0,17.009-7.729,17.009-7.729l1.562-222.361L214.504,241.251z"/>
<path style="fill:#FFB657;" d="M294.414,270.178c0,0-0.37,12.115-0.029,14.426c0.341,2.311,2.835,4.607,2.835,4.607
	s-0.226,5.598,1.944,7.211c2.17,1.612,14.743-4.495,16.672-6.475c2.712-2.782-0.614-22.834-0.614-22.834
	S297.555,260.057,294.414,270.178z"/>
<path style="fill:#00479B;" d="M317.503,187.272c-0.975-57.997-3.573-65.274-14.064-71.599
	c-31.646-24.614-68.833-30.135-76.752-31.062c-0.262-0.05-0.51-0.117-0.79-0.146c-0.158-0.017-0.371-0.019-0.626-0.004
	c-0.076-0.007-0.117-0.01-0.117-0.01c-0.573,0.009-1.184,0.122-1.821,0.332c-4.874,1.224-14.382,6.379-16.565,23.712
	c-0.978,7.765-10.641,112.717-10.641,112.717c0,4.576,6.654,9.149,12.51,10.117c-0.189,4.452-0.312,7.062-0.312,7.062
	c1.582,7.236,8,13.4,16.711,18.099l8.571-7.853l11.325,15.224c17.786,4.269,38.573,3.155,47.864-4.128
	c0.264,7.714,0.433,12.455,0.433,12.455s9.405,8.846,24.331-2.607C317.559,269.582,317.66,196.583,317.503,187.272z"/>
<path style="fill:#013F8A;" d="M210.161,186.256l-1.133-59.01c0-0.001,0-0.001,0-0.001l-3.412,103.294
	c1.007,0.356,2.026,0.614,3.022,0.777C209.032,222.033,209.712,204.727,210.161,186.256z"/>
<path style="fill:#004FAE;" d="M237.491,192.563l38.586-34.579l-10.716-4.39l12.415-0.506c0,0,8.538-40.991,6.164-48.112
	c-7.963-23.887-42.027-19.942-52.643-9.325c-10.616,10.616-17.691,33.213-17.691,33.213l10.616,7.963l-11.944,1.327L237.491,192.563
	z"/>
<path style="fill:#D8D8DA;" d="M242.808,93.106c0,0-11.997,3.403-13.325,29.944c-0.6,12.003,8.008,69.514,8.008,69.514
	s42.071-76.558,38.353-89.571c-2.655-9.289-7.83-8.632-7.83-8.632L242.808,93.106z"/>
<path style="fill:#FFB657;" d="M241.629,76.547c0,0-2.244,16.952-3.315,26.268c-0.793,6.891,11.383,11.332,20.689,8.406
	s13.066-9.809,13.066-9.809c-4.39-14.782-4.105-36.211-4.105-36.211L241.629,76.547z"/>
<path style="fill:#DDB201;" d="M237.491,192.563c0,0,5.6-10.191,12.531-23.765l-2.745-48.068l4.398-8.824l-12.912-2.787
	l2.675,10.601l-8.255,41.972C235.283,177.812,237.491,192.563,237.491,192.563z"/>
<polygon style="fill:#EEBF00;" points="238.761,109.119 241.437,119.72 247.277,120.73 251.674,111.906 "/>
<path style="fill:#FEC377;" d="M222.762,48.587c0,0,2.124,31.846,9.782,37.534c7.658,5.687,31.655,0.235,45.005-22.489
	c11.137-18.957,6.489-56.141-17.447-60.084C232.142-1.057,221.085,20.088,222.762,48.587z"/>
<path style="fill:#013F8A;" d="M289.624,151.874l-1.557,110.646c1.791-0.8,3.376-1.731,4.727-2.788
	C291.957,235.274,290.148,180.823,289.624,151.874z"/>
<g>
	<path style="fill:#E0E0E2;" d="M270.895,96.864c0,0,0.465,1.519-0.65,2.633c-2.603,2.604-11.561,8.502-22.48,11.189l5,16.558
		c0,0,22.405-16.801,22.034-24.427c-0.306-6.292-4.647-9.712-4.647-9.712L270.895,96.864z"/>
	<path style="fill:#E0E0E2;" d="M239.108,96.193c0,0-3.117,3.652-5.214,10.644c-2.098,6.991,2.608,16.78,2.608,16.78l6.778-14.005
		c0,0-4.366-3.273-4.666-5.374C238.313,102.136,239.108,96.193,239.108,96.193z"/>
</g>
<g>
	<path style="fill:#A66206;" d="M268.27,61.711l-0.01,1.174c0,0,0.005-0.019,0.01-0.033V61.711z"/>
	<path style="fill:#A66206;" d="M276.612,8.396c-1.22-1.173-2.577-2.308-4.108-3.4c0,0-2.437-1.755-6.38-3.482
		c-1.194-0.385-2.431-0.706-3.736-0.908c-27.18-4.204-42.54,13.973-42.953,39.416c10.596,9.085,40.836,9.531,49.067-5.326
		l-0.233,27.013c0-0.002,2.5-17.56,7.702-17.793c3.669-0.164,5.265,7.415,2.569,13.243c-1.326,2.866-3.831,5.633-6.035,7.709
		c-0.13,1.167-0.375,3.252-0.848,7.002c1.521-0.706,6.823-7.262,8.956-11.415C288.449,45.192,288.817,21.852,276.612,8.396z"/>
</g>
</svg>