<?xml version="1.0" encoding="iso-8859-1"?>
<!-- Uploaded to: SVG Repo, www.svgrepo.com, Generator: SVG Repo Mixer Tools -->
<svg height="800px" width="800px" version="1.1" id="Layer_1" xmlns="http://www.w3.org/2000/svg" xmlns:xlink="http://www.w3.org/1999/xlink" 
	 viewBox="0 0 511.999 511.999" xml:space="preserve">
<g>
	<path style="fill:#FE0B37;" d="M278.816,465.379c-2.418-8.128-16.511-3.868-16.511-3.868s-10.111,30.9-11.921,36.5
		c-1.81,5.6-6.553,12.717,0.83,13.816c12.182,1.814,22.225-11.027,24.208-26.184c0.061-0.464,0.604-0.771,1.321-1.22l1.346,21.024
		h1.876v-24.69C281.033,478.099,281.253,473.573,278.816,465.379z"/>
	<path style="fill:#FE0B37;" d="M236.886,440.646c-2.418-8.128-16.511-3.868-16.511-3.868s-10.111,28.893-11.921,34.494
		c-1.81,5.6-5.684,14.232,0.679,15.822c9.398,2.35,22.377-11.027,24.359-26.184c0.059-0.444,0.559-0.744,1.23-1.163l1.334,20.844
		h1.876v-24.317C239.088,453.653,239.399,449.098,236.886,440.646z"/>
</g>
<g>
	<path style="fill:#FFB657;" d="M205.135,227.122c0,0-2.797,21.928-1.718,23.007s6.039,4.1,7.227,4.1
		c1.188,0,9.877-3.328,10.891-5.602c0.872-1.958,0.234-6.903-2.244-9.876c-2.846-3.415-2.478-9.417-2.478-9.417L205.135,227.122z"/>
	<path style="fill:#FFB657;" d="M300.78,284.682c0.103-27.15-15.612-46.523-15.612-46.523l-71.781-6.353l6.988,204.971
		c0,0-3.852,4.934,4.381,5.767c7.817,0.791,11.334-3.125,11.334-3.125s13.239-53.924,4.676-95.967c0,0,7.486-26.273,12.826-50.383
		l2.996,0.699l5.719,167.744c0,0-3.852,6.419,4.381,7.251c7.816,0.79,11.363-3.82,11.363-3.82s13.21-54.714,4.647-96.755
		C282.696,368.187,300.702,305,300.78,284.682z"/>
</g>
<g>
	<path style="fill:#FE0B37;" d="M222.819,87.83c0,0-18.459-2.103-15.723,54.676c2.753,57.105-3.223,85.52-3.223,85.52
		s1.238,4.223,8.49,4.223c7.252,0,8.458-2.715,8.458-2.715s2.646-66.282,2.968-69.495C225.045,147.483,236.773,90.965,222.819,87.83
		z"/>
	<path style="fill:#FE0B37;" d="M213.423,243.742l-2.229,73.782c0,0,7.913,12.603,44.42,21.192
		c20.665,4.861,36.288,0.812,36.288,0.812s14.585-49.775,7.987-72.295c-5.774-19.711-14.675-31.65-14.675-31.65L213.423,243.742z"/>
	<path style="fill:#FE0B37;" d="M213.423,243.742c0,0,3.248-29.064,3.779-61.116c0.192-11.618-11.048-25.127-11.048-39.178
		c0-14.633,5.419-35.961,16.665-55.619c0,0,43.779-11.991,77.604,40.837c0,0-17.704,23.082-19.709,62.557
		c-1.011,19.909,8.466,50.625,8.466,50.625C255.647,268.393,218.863,268.63,213.423,243.742z"/>
</g>
<g>
	<path style="fill:#C60024;" d="M280.729,142.17c-0.002,0.051-0.005,0.1-0.008,0.151c-0.335,8.391,1.281,15.478,2.662,27.979
		c0.25-1.207,0.514-2.384,0.787-3.543C282.44,156.17,280.633,149.563,280.729,142.17z"/>
	<path style="fill:#C60024;" d="M286.716,275.035c0,0-0.738-7.721-0.005-42.087c-0.581-2.256-1.215-4.835-1.849-7.639
		c-1.069,42.024-0.204,51.038-0.204,51.038s5.498,9.641,16.933,4.27c-0.002-0.163-0.009-0.321-0.013-0.483
		C291.552,283.501,286.716,275.035,286.716,275.035z"/>
	<path style="fill:#C60024;" d="M214.636,231.039l1.466-20.249c0.509-8.584,0.935-18.229,1.099-28.164
		c0.15-9.113-6.73-19.39-9.706-30.178c0.08,2.478,0.145,4.901,0.194,7.261c2.732,6.395,5.377,12.717,6.774,16.409
		c3.643,9.632-5.469,55.671-5.487,55.76c0.951,0.229,2.066,0.372,3.386,0.372c0.262,0,0.498-0.01,0.745-0.018l1.431-0.074
		C214.571,231.789,214.604,231.423,214.636,231.039z"/>
</g>
<path style="fill:#FFB657;" d="M240.128,81.269c0,0-2.246,16.968-3.318,26.292c-0.793,6.897,11.393,11.342,20.708,8.414
	c9.314-2.928,13.077-9.818,13.077-9.818c-4.393-14.796-4.108-36.245-4.108-36.245L240.128,81.269z"/>
<path style="fill:#FEC377;" d="M219.216,50.761c0,0,2.231,32.297,10.426,38.055s36.69-3.411,48.245-22.873
	c11.554-19.462,7.154-59.881-18.483-63.846C229.457-2.535,217.459,21.857,219.216,50.761z"/>
<g>
	<path style="fill:#884D01;" d="M220.752,57.808c0.287,7.297,2.822,20.805,3.644,27.137c-6.301-11.462-10.507-29.725-10.709-42.803
		c-0.202-13.078,4.701-27.98,13.016-34.205c8.254-6.179,16.284-8.314,26.585-7.883c7.547,0.316,18.576,6.015,23.622,12.018
		c4.172,4.963,2.333,9.002-5.34,12.929c-7.406,3.791-17.885,5.515-24.063,5.326C232.361,29.866,220.155,42.666,220.752,57.808z"/>
	<path style="fill:#884D01;" d="M263.796,48.355c4.496,8.942,3.324,39.589,1.686,42.162c4.481-5.537,12.936-15.984,16.315-22.255
		c0.979-1.818,1.914-3.672,2.529-5.643c0.787-2.524,1.032-5.18,1.265-7.814c0.544-6.155,1.05-12.349,0.491-18.503
		c-0.558-6.154-2.237-12.319-5.73-17.415c-0.679-0.99-1.466-1.971-2.558-2.473c-2.036-0.936-4.402,0.057-6.376,1.118
		c-4.359,2.34-12.926,6.094-14.311,11.437C255.467,35.295,261.133,43.056,263.796,48.355z"/>
</g>
<path style="fill:#FFB657;" d="M288.129,276.336c0,0-2.867,12.494-2.525,14.807c0.341,2.313,2.838,4.612,2.838,4.612
	s-0.226,5.603,1.946,7.216s14.756-4.5,16.688-6.482c2.714-2.785-0.614-22.855-0.614-22.855S291.271,266.205,288.129,276.336z"/>
<path style="fill:#FE0B37;" d="M294.78,123.124c-5.493-1.45-13.393,2.082-14.024,17.885c-0.632,15.803,7.685,26.982,6.285,78.425
	c-1.252,45.949-0.324,55.601-0.324,55.601s7.142,12.533,22.08,1.07c0,0,0.101-73.065-0.055-82.386
	C307.766,135.669,300.78,124.708,294.78,123.124z"/>
<g>
	<path style="fill:#FFB657;" d="M220.375,436.778c0,0-7.204,20.487-7.407,22.779c-0.326,3.649,5.735,5.923,8.008,3.649
		c2.655-2.656,15.114-23.787,15.114-23.787L220.375,436.778z"/>
	<path style="fill:#FFB657;" d="M262.335,461.513c0,0-7.204,20.487-7.408,22.779c-0.326,3.649,5.735,5.923,8.008,3.649
		c2.655-2.655,15.114-22.999,15.114-22.999L262.335,461.513z"/>
</g>
</svg>